<svg width="80" height="80" viewBox="0 0 80 80" fill="none" xmlns="http://www.w3.org/2000/svg">
<path d="M40 43.3333C38 43.3333 36.6667 42 36.6667 40C36.6667 38 38 36.6667 40 36.6667C42 36.6667 43.3333 38 43.3333 40C43.3333 42 42 43.3333 40 43.3333Z" fill="#9B9A78"/>
<path d="M60 16.6667V56.6667C60 58.3333 58.3333 60 56.6667 60H50V24.6667C50 21.6667 48 19.3333 45.3333 18.3333L20 10H53.3333C57 10 60 13 60 16.6667Z" fill="#9B9A78"/>
<path d="M53.3333 6.66667H20H19.6667H19.3333C19 6.66667 18.6667 7 18.3333 7C18.3333 7 18.3333 7 18 7C18 7 18 7.00001 17.6667 7.33334C17.6667 7.66667 17.3333 8.00001 17.3333 8.33334C17 8.66667 16.6667 9.00001 16.6667 9.33334C16.6667 9.66667 16.6667 10 16.6667 10V57.6667C16.6667 60.6667 18.3333 63 21.3333 64L44.6667 71.6667C45.3333 72 46 72 46.6667 72C48 72 49.3333 71.6667 50.6667 70.6667C52.3333 69.3333 53.3333 67.3333 53.3333 65.3333V63.3333H56.6667C60.3333 63.3333 63.3333 60.3333 63.3333 56.6667V16.6667C63.3333 11 59 6.66667 53.3333 6.66667ZM46.6667 65.3333L23.3333 57.6667V14.6667L44.3333 21.6667C45.6667 22 46.6667 23.3333 46.6667 24.6667V60V65.3333ZM56.6667 56.6667H53.3333V24.6667C53.3333 20.3333 50.6667 16.6667 46.3333 15.3333L40.6667 13.3333H53.3333C55.3333 13.3333 56.6667 14.6667 56.6667 16.6667V56.6667Z" fill="#313131"/>
</svg>
